<svg width="766" height="146" viewBox="0 0 766 146" fill="none" xmlns="http://www.w3.org/2000/svg">
<mask id="mask0" mask-type="alpha" maskUnits="userSpaceOnUse" x="1" y="3" width="484" height="140">
<path fill-rule="evenodd" clip-rule="evenodd" d="M1 3H484.904V142.103H1V3Z" fill="white"/>
</mask>
<g mask="url(#mask0)">
<path fill-rule="evenodd" clip-rule="evenodd" d="M469.059 4.94029H387.259L382.458 21.1139L366.769 4.94029H320.83L326.591 19.1718C315.542 8.01147 303.858 2.99815 289.131 2.99815C268.802 2.99815 251.679 13.6753 243.991 31.4658L234.547 21.9224C221.258 8.49933 208.135 2.99815 192.925 2.99815C174.201 2.99815 157.39 11.8957 148.263 26.6151L137.38 15.78C127.296 5.58612 118.812 2.99815 108.246 2.99815C99.1234 2.99815 91.44 5.91136 83.7566 11.0873C77.8342 5.58612 70.6336 2.99815 62.6237 2.99815C56.2232 2.99815 49.1835 5.4235 43.5784 8.98254L39.578 4.94029H1V100.049L17.006 116.223H59.5844V103.125L72.5556 116.223H110.329V103.125L123.296 116.223H161.074V92.9312L166.357 98.2698C180.28 112.343 191.968 118.165 208.935 118.165C229.268 118.165 247.513 107.325 255.997 89.8554L264.641 98.5904C278.408 112.501 289.452 118.165 309.62 118.165C313.303 118.165 316.83 118.002 319.386 117.682L325.63 123.987C337.636 136.118 349.642 142.103 364.847 142.103C387.737 142.103 403.747 129.488 413.031 104.254L428.398 62.3588L431.764 85.8132H423.919V123.987L439.925 140.165H483.465V101.991L477.703 96.3277L484.586 45.8646C484.904 43.4392 484.904 42.7888 484.904 40.526V20.9513L469.059 4.94029Z" fill="#093256"/>
</g>
<path fill-rule="evenodd" clip-rule="evenodd" d="M8.35938 92.9335H36.2146V49.096C36.2146 40.2031 41.176 35.3477 47.903 35.3477C54.4599 35.3477 59.104 40.2031 59.104 49.096V92.9335H86.9592V49.096C86.9592 40.2031 92.0815 35.3477 98.8039 35.3477C105.37 35.3477 109.849 40.2031 109.849 49.096V92.9335H137.704V41.4947C137.704 20.9536 125.859 10.1139 108.248 10.1139C97.0429 10.1139 88.3985 15.4524 83.2762 21.9247C78.4758 14.1608 70.3095 10.1139 60.3822 10.1139C49.3422 10.1139 40.2196 16.5861 35.4146 24.0248V12.056H8.35938V92.9335ZM192.928 94.871C217.739 94.871 237.428 76.5973 237.428 52.3345C237.428 27.9091 217.739 10.1139 192.928 10.1139C168.117 10.1139 148.428 28.0717 148.428 52.3345C148.428 76.5973 168.117 94.871 192.928 94.871V94.871ZM293.616 94.871C309.139 94.871 321.945 90.5082 330.589 84.5191L320.51 66.566C313.627 70.4503 304.982 72.8756 297.455 72.8756C288.65 72.8756 278.566 68.996 275.849 60.419H330.433C330.75 58.3189 330.911 55.7309 330.911 53.7887C330.911 30.0138 316.827 10.1139 289.133 10.1139C263.843 10.1139 247.354 28.3923 247.354 52.3345C247.354 77.5637 264.16 94.871 293.616 94.871V94.871ZM355.24 118.813C375.251 118.813 385.978 108.624 394.305 85.6528L421.034 12.056H392.862L378.612 59.4479L361.645 12.056H331.551L364.367 91.7998C361.645 94.713 357.484 95.3542 353.484 95.3542C348.683 95.3542 342.761 93.7419 336.673 90.8287L327.233 109.595C335.551 115.254 346.278 118.813 355.24 118.813V118.813ZM437.84 82.9068H453.689L461.534 26.1295V12.056H429.678V26.1295L437.84 82.9068ZM275.366 45.0537C276.805 36.3188 282.244 31.4681 289.132 31.4681C296.811 31.4681 301.777 36.644 303.221 45.0537H275.366ZM192.928 70.6082C182.844 70.6082 176.283 62.5237 176.283 52.3345C176.283 42.1406 182.844 34.3767 192.928 34.3767C203.012 34.3767 209.578 42.6284 209.578 52.3345C209.578 62.5237 203.012 70.6082 192.928 70.6082V70.6082ZM431.283 116.871H460.095V92.9335H431.283V116.871Z" fill="#FFCE53"/>
<path fill-rule="evenodd" clip-rule="evenodd" d="M585.66 65.3282C584.998 65.3282 584.455 64.7753 584.455 64.1016V48.3554C584.455 35.6153 594.677 25.2774 607.289 25.2774H622.881C623.539 25.2774 624.082 25.8303 624.082 26.504V42.2456C624.082 54.9903 613.865 65.3282 601.247 65.3282H585.66Z" fill="#093256"/>
<path fill-rule="evenodd" clip-rule="evenodd" d="M583.13 51.3588C583.13 52.0232 582.583 52.5715 581.912 52.5715H566.343C553.73 52.5715 543.49 42.2475 543.49 29.4981V13.7612C543.49 13.0643 544.051 12.5207 544.709 12.5207H560.282C572.895 12.5207 583.13 22.8586 583.13 35.6172V51.3588Z" fill="#093256"/>
<path fill-rule="evenodd" clip-rule="evenodd" d="M583.125 54.6608L583.135 74.9232H581.465V54.6608C581.521 53.4575 583.07 53.4575 583.125 54.6608" fill="#093256"/>
<path fill-rule="evenodd" clip-rule="evenodd" d="M584.455 39.4151V26.2104C584.455 13.475 594.681 3.12779 607.294 3.12779H620.918C621.58 3.12779 622.118 3.69928 622.118 4.3637L622.109 23.7804H607.294C597.642 23.7804 588.382 29.3141 584.455 39.4151" fill="#FFCE53"/>
<mask id="mask1" mask-type="alpha" maskUnits="userSpaceOnUse" x="648" y="3" width="54" height="73">
<path fill-rule="evenodd" clip-rule="evenodd" d="M648.925 3H701.477V75.8474H648.925V3Z" fill="white"/>
</mask>
<g mask="url(#mask1)">
<path fill-rule="evenodd" clip-rule="evenodd" d="M701.325 17.0211C694.681 9.08988 687.995 2.99863 677.327 2.99863C667.961 2.99863 659.689 7.27319 654.571 15.1997C649.739 22.5408 648.925 30.8623 648.925 39.416C648.925 47.9698 649.739 56.3099 654.571 63.6324C659.689 71.5635 667.961 75.8474 677.327 75.8474C687.995 75.8474 694.929 69.8119 701.477 61.8482C701.477 61.8482 694.961 55.4456 690.234 61.2117C686.79 64.7289 683.176 66.9916 677.327 66.9916C661.326 66.9916 657.79 52.6393 657.79 39.416C657.79 26.2021 661.326 11.8451 677.327 11.8451C683.691 11.8451 687.42 14.5307 691.163 18.5915C696.019 22.8475 701.325 17.0211 701.325 17.0211" fill="#093256"/>
</g>
<mask id="mask2" mask-type="alpha" maskUnits="userSpaceOnUse" x="700" y="3" width="65" height="73">
<path fill-rule="evenodd" clip-rule="evenodd" d="M700.988 3.81839H764.929V75.0488H700.988V3.81839Z" fill="white"/>
</mask>
<g mask="url(#mask2)">
<path fill-rule="evenodd" clip-rule="evenodd" d="M764.929 74.9246L737.437 3.91109C737.437 3.91109 731.754 3.04224 728.43 6.62451C726.154 9.0638 725.151 12.5253 725.151 12.5253L700.988 74.9246H710.562L718.415 54.3742H747.406L752.519 67.0678C752.519 67.0678 754.4 71.6954 755.844 72.8895C759.32 75.8027 764.929 74.9246 764.929 74.9246V74.9246ZM744.178 45.839H721.734L732.917 16.9392L744.178 45.839Z" fill="#093256"/>
</g>
<path fill-rule="evenodd" clip-rule="evenodd" d="M714.729 101.654L713.984 103.252C713.428 102.913 712.72 102.741 712.131 102.741C710.407 102.741 708.733 104.154 708.733 106.073V108.442V113.14V113.6C708.733 114.617 708.218 115.221 707.602 115.221H706.857V109.07V101.403H708.733V102.174C709.667 101.129 710.715 100.878 712.131 100.878C712.909 100.878 714.109 101.083 714.729 101.654" fill="#093256"/>
<path fill-rule="evenodd" clip-rule="evenodd" d="M718.748 113.601C718.748 114.54 718.178 115.223 717.709 115.223H716.821V101.405H718.748V113.601Z" fill="#093256"/>
<path fill-rule="evenodd" clip-rule="evenodd" d="M617.117 95.3788L613.839 99.5605H611.517L613.903 95.3788H617.117Z" fill="#093256"/>
<path fill-rule="evenodd" clip-rule="evenodd" d="M616.641 106.673C616.572 106.069 616.434 105.534 616.305 105.297C615.721 104.47 615.022 104.103 613.983 104.103C612.112 104.103 611.192 105.07 610.893 106.673H616.641ZM619.584 109.493H610.811C610.87 110.278 611.036 111.021 611.372 111.523C611.868 112.248 612.875 112.81 614.236 112.81C615.367 112.81 616.269 112.48 617.17 111.472L619.492 113.219C617.933 114.966 616.19 115.626 614.264 115.626C611.992 115.64 610.024 114.701 608.944 113.084C607.951 111.593 607.863 109.674 607.863 108.41C607.863 107.044 607.997 105.218 608.944 103.764C610.034 102.11 611.831 101.278 614.002 101.278C615.988 101.278 617.657 102.129 618.724 103.787C619.754 105.321 619.607 107.704 619.584 109.493V109.493Z" fill="#093256"/>
<path fill-rule="evenodd" clip-rule="evenodd" d="M640.663 96.9716C640.663 97.9427 639.9 98.7186 638.944 98.7186C637.964 98.7186 637.21 97.9427 637.21 96.9716C637.21 95.9959 637.964 95.2339 638.944 95.2339C639.9 95.2339 640.663 95.9959 640.663 96.9716" fill="#093256"/>
<path fill-rule="evenodd" clip-rule="evenodd" d="M650.009 101.405H648.092V111.645C648.092 111.845 648.069 112.072 648.12 112.282C648.189 112.388 648.262 112.481 648.469 112.481H649.706V115.353H648.469C647.393 115.353 646.391 114.865 645.834 113.94C645.352 113.16 645.324 112.282 645.324 111.645V101.405H643.632V98.7795H645.324V95.3877H648.092V98.7795H650.009V101.405Z" fill="#093256"/>
<path fill-rule="evenodd" clip-rule="evenodd" d="M661.747 108.338C661.747 107.13 661.664 105.875 661.191 105.132C660.763 104.402 659.848 103.952 658.588 103.952C657.342 103.952 656.441 104.402 656.018 105.132C655.53 105.903 655.448 107.13 655.448 108.338C655.448 109.444 655.53 110.735 656.018 111.511C656.464 112.208 657.342 112.696 658.588 112.696C659.848 112.696 660.763 112.208 661.191 111.511C661.664 110.735 661.747 109.42 661.747 108.338M664.662 108.291C664.662 109.56 664.574 111.511 663.673 112.993C662.657 114.62 660.763 115.502 658.606 115.502C656.482 115.516 654.528 114.62 653.53 112.993C652.61 111.511 652.527 109.56 652.527 108.338C652.527 106.995 652.647 105.109 653.53 103.659C654.528 102.019 656.463 101.127 658.606 101.127C660.763 101.127 662.625 102.019 663.673 103.659C664.547 105.109 664.662 106.949 664.662 108.291" fill="#093256"/>
<path fill-rule="evenodd" clip-rule="evenodd" d="M701.182 106.055C701.182 103.965 700.13 103.021 698.102 103.021C696.102 103.021 694.975 103.941 694.975 106.055C694.975 108.086 696.115 109.206 698.129 109.206C700.212 109.206 701.182 108.118 701.182 106.055M704.322 115.487C704.322 118.786 700.924 120.626 698.041 120.626C695.604 120.626 692.588 119.795 692.588 116.802C692.588 116.282 692.661 115.748 692.832 115.264L694.524 115.854C694.395 116.143 694.344 116.426 694.344 116.714C694.344 118.596 696.597 118.916 698.041 118.916C699.89 118.916 702.538 117.694 702.538 115.543C702.538 114.567 701.582 113.996 700.704 113.996C699.154 113.996 697.724 114.735 696.174 114.735C694.841 114.735 693.563 114.182 693.563 112.639C693.563 111.571 694.344 110.72 695.126 110.084C693.71 109.285 693.098 107.603 693.098 106.056C693.098 102.915 695.066 101.205 698.101 101.205C699.352 101.205 700.616 101.507 701.582 102.325C702.037 102.176 702.225 101.818 702.29 101.405H704.124C704.033 102.39 703.6 103.333 702.671 103.774C702.97 104.48 703.067 105.252 703.067 106.056C703.067 109.313 701.232 110.86 698.101 110.86C697.595 110.86 697.08 110.776 696.597 110.688C695.94 111.115 695.301 111.743 695.301 112.542C695.301 112.978 695.724 113.174 696.101 113.174C697.669 113.174 699.113 112.351 700.704 112.351C702.538 112.351 704.322 113.452 704.322 115.487" fill="#093256"/>
<path fill-rule="evenodd" clip-rule="evenodd" d="M721.252 95.3882L718.562 99.5745H716.709L719.109 95.3882H721.252Z" fill="#093256"/>
<path fill-rule="evenodd" clip-rule="evenodd" d="M732.429 113.084C730.994 114.636 729.863 115.388 727.711 115.388C723.568 115.388 721.582 112.183 721.582 108.294C721.582 104.395 723.568 101.185 727.711 101.185C729.891 101.185 730.994 101.919 732.429 103.531L731.109 104.79C730.098 103.638 729.265 102.974 727.711 102.974C724.516 102.974 723.568 105.501 723.568 108.294C723.568 111.067 724.516 113.614 727.711 113.614C729.265 113.614 730.098 112.958 731.109 111.82L732.429 113.084Z" fill="#093256"/>
<path fill-rule="evenodd" clip-rule="evenodd" d="M744.458 108.483C744.458 105.649 743.911 103.191 740.563 103.191C737.271 103.191 736.701 105.649 736.701 108.483C736.701 111.275 737.271 113.705 740.563 113.705C743.879 113.705 744.458 111.275 744.458 108.483M746.361 108.339C746.361 112.279 745.009 115.443 740.595 115.443C736.181 115.443 734.797 112.279 734.797 108.362C734.797 104.403 736.181 101.188 740.595 101.188C745.009 101.188 746.361 104.403 746.361 108.339" fill="#093256"/>
<path fill-rule="evenodd" clip-rule="evenodd" d="M751.921 115.221C749.806 115.221 748.79 114.05 748.79 111.964V95.3858H750.712V111.852C750.712 112.814 750.827 113.339 751.921 113.339V115.221Z" fill="#093256"/>
<path fill-rule="evenodd" clip-rule="evenodd" d="M596.059 99.7125C595.884 99.8611 595.64 100.033 595.351 100.163C594.762 100.447 593.935 100.581 593.162 99.9076C592.155 98.8157 591.167 98.0956 589.493 98.0956C585.295 98.0956 584.315 101.827 584.315 105.502C584.315 109.163 585.295 112.894 589.493 112.894C591.029 112.894 591.976 112.322 592.9 111.375C593.654 110.482 594.546 110.543 595.217 110.803C595.549 110.938 595.829 111.138 596.022 111.272C596.243 111.426 596.528 111.718 596.528 111.718L596.376 111.886C594.555 114.093 592.564 115.84 589.493 115.84C586.817 115.84 584.458 114.618 582.977 112.35C581.593 110.259 581.382 107.881 581.382 105.502C581.382 103.114 581.593 100.744 582.977 98.6531C584.458 96.3811 586.817 95.1638 589.493 95.1638C592.564 95.1638 594.486 96.92 596.335 99.127L596.482 99.3082C596.482 99.3082 596.224 99.5731 596.059 99.7125" fill="#093256"/>
<path fill-rule="evenodd" clip-rule="evenodd" d="M606.895 101.999L605.621 104.155C605.621 104.155 604.711 103.625 603.975 103.625C601.616 103.625 601.455 106.585 601.455 106.701V113.317C601.455 114.363 600.821 115.222 599.726 115.222H598.521V101.404H601.455V102.538C602.053 101.934 603.005 101.223 604.333 101.186C605.957 101.13 606.895 101.999 606.895 101.999" fill="#093256"/>
<path fill-rule="evenodd" clip-rule="evenodd" d="M640.387 113.084C640.387 114.204 639.578 115.221 638.663 115.221H637.467V101.403H640.387V113.084Z" fill="#093256"/>
<path fill-rule="evenodd" clip-rule="evenodd" d="M686.066 109.204H678.088L675.762 115.193H673.522L680.314 97.6816C680.314 97.6816 680.622 96.7198 681.229 96.0043C681.84 95.2934 682.351 95.2469 682.88 95.2469L690.591 115.193C690.089 115.193 689.197 115.342 688.485 114.617C688.121 114.259 687.547 112.991 687.547 112.991L686.066 109.204ZM678.837 107.248H685.316L682.056 98.9082L678.837 107.248Z" fill="#093256"/>
<path fill-rule="evenodd" clip-rule="evenodd" d="M762.977 110.688V108.57C762.724 108.57 762.025 108.607 761.625 108.607L759.247 108.709C757.951 108.709 756.318 109.75 756.318 111.209C756.318 112.654 757.565 113.615 758.857 113.615C760.369 113.615 762.88 113.235 762.977 110.814V110.688ZM764.847 115.223H764.02C763.61 115.223 763.137 114.721 762.999 113.992C761.716 115.223 760.511 115.451 759.159 115.451C756.805 115.451 754.589 113.806 754.589 111.288C754.589 108.658 756.727 107.106 759.159 107.106H761.541C762.084 107.106 762.59 106.995 762.976 106.627V105.169C762.976 103.635 761.389 103.022 760.093 103.022C758.598 103.022 757.297 103.607 756.805 105.169L755.095 104.509C755.821 102.079 757.775 101.126 760.162 101.126C762.498 101.126 764.847 102.576 764.847 105.169V115.223Z" fill="#093256"/>
<path fill-rule="evenodd" clip-rule="evenodd" d="M630.772 106.164C630.708 105.649 630.598 105.216 630.441 104.9C630.009 104.18 629.182 103.706 628.06 103.706C626.924 103.706 626.101 104.18 625.687 104.9C625.223 105.7 625.144 106.866 625.144 108.111C625.117 109.24 625.195 110.485 625.687 111.294C626.101 112.023 626.924 112.506 628.06 112.506C629.182 112.506 630.009 112.046 630.441 111.294C630.598 110.987 630.708 110.564 630.772 110.053V106.164ZM633.697 115.173H632.497C631.872 115.173 631.283 114.699 630.989 114.002L630.92 113.942C630.125 114.82 629.182 115.41 628.06 115.41C625.963 115.387 624.161 114.449 623.163 112.757C622.322 111.252 622.234 109.393 622.234 108.111C622.234 106.699 622.322 104.933 623.163 103.465C624.161 101.736 625.963 100.812 628.06 100.812C629.021 100.812 629.945 101.025 630.773 101.42V95.3896H633.697V112.994V115.173Z" fill="#093256"/>
</svg>
